# xmcd
#
# Track frame offsets: 
#        150
#        16423
#        36435
#        52705
#        62915
#        79148
#        94815
#        112995
#        131660
#        149573
#        166335
#        182635
#
# Disc length: 2645 seconds
#
# Revision: 0
# Processed by: cddbd v1.4PL0 Copyright (c) Steve Scherf et al.
# Submitted via: ExactAudioCopy v0.90b4
#
DISCID=a10a530c
DTITLE=The Blue Café - shadowland
DYEAR=1990
DGENRE=
TTITLE0=silent street
TTITLE1=small café
TTITLE2=water paintings
TTITLE3=steps to our emotions
TTITLE4=dark night
TTITLE5=yellow car
TTITLE6=when darkness comes
TTITLE7=colors of your dream
TTITLE8=ghost town
TTITLE9=music is my life
TTITLE10=a little band
TTITLE11=something you said
EXTD=
EXTT0=
EXTT1=
EXTT2=
EXTT3=
EXTT4=
EXTT5=
EXTT6=
EXTT7=
EXTT8=
EXTT9=
EXTT10=
EXTT11=
PLAYORDER=
